# AST/ASF file generated using VICON BodyLanguage
# -----------------------------------------------
:version 1.10
:name VICON
:units
  mass 1.0
  length 0.45
  angle deg
:documentation
   .ast/.asf automatically generated from VICON data using
   VICON BodyBuilder and BodyLanguage model FoxedUp or BRILLIANT.MOD
:root
   order TX TY TZ RX RY RZ
   axis XYZ
   position 0 0 0  
   orientation 0 0 0 
:bonedata
  begin
     id 1 
     name lhipjoint
     direction 0.561001 -0.76473 0.316963 
     length 2.4722 
     axis 0 0 0  XYZ
  end
  begin
     id 2 
     name lfemur
     direction 0.34202 -0.939693 0  
     length 7.59403  
     axis 0 0 20  XYZ
    dof rx ry rz
    limits (-160.0 20.0)
           (-70.0 70.0)
           (-60.0 70.0)
  end
  begin
     id 3 
     name ltibia
     direction 0.34202 -0.939693 0   
     length 7.89655   
     axis 0 0 20   XYZ
    dof rx
    limits (-10.0 170.0)
  end
  begin
     id 4 
     name lfoot
     direction 0.061296 -0.168409 0.98381   
     length 2.73287   
     axis -90 7.62852e-016 20   XYZ
    dof rx rz
    limits (-45.0 90.0)
           (-70.0 20.0)
  end
  begin
     id 5 
     name ltoes
     direction 1.53547e-011 -4.21984e-011 1   
     length 1.37057   
     axis -90 7.62852e-016 20   XYZ
    dof rx
    limits (-90.0 20.0)
  end
  begin
     id 6 
     name rhipjoint
     direction -0.559611 -0.765599 0.317323   
     length 2.46939  
     axis 0 0 0  XYZ 
  end
  begin
     id 7 
     name rfemur
     direction -0.34202 -0.939693 0   
     length 7.53712   
     axis 0 0 -20   XYZ
    dof rx ry rz
    limits (-160.0 20.0)
           (-70.0 70.0)
           (-70.0 60.0)
  end
  begin
     id 8 
     name rtibia
     direction -0.34202 -0.939693 0   
     length 8.12549   
     axis 0 0 -20   XYZ
    dof rx
    limits (-10.0 170.0)
 end
 begin
     id 9 
     name rfoot
     direction -0.066984 -0.184037 0.980634   
     length 2.67541  
     axis -90 -7.62852e-016 -20   XYZ
    dof rx rz
    limits (-45.0 90.0)
           (-20.0 70.0)
  end
  begin
     id 10 
     name rtoes
     direction -1.53549e-011 -4.21786e-011 1   
     length 1.34085   
     axis -90 -7.62852e-016 -20   XYZ
    dof rx
    limits (-90.0 20.0)
  end
  begin
     id 11 
     name lowerback
     direction -0.0522728 0.992594 -0.109658   
     length 2.05633   
     axis 0 0 0   XYZ
    dof rx ry rz
    limits (-20.0 45.0)
           (-30.0 30.0)
           (-30.0 30.0)
  end
  begin
     id 12 
     name upperback
     direction 0.00589338 0.999977 0.00335704   
     length 2.05845   
     axis 0 0 0   XYZ
    dof rx ry rz
    limits (-20.0 45.0)
           (-30.0 30.0)
           (-30.0 30.0)
  end
  begin
     id 13 
     name thorax
     direction 0.0292928 0.998059 0.0549487   
     length 2.09281   
     axis 0 0 0   XYZ
    dof rx ry rz
    limits (-20.0 45.0)
           (-30.0 30.0)
           (-30.0 30.0)
  end
  begin
     id 14 
     name lowerneck
     direction 0.0356368 0.980775 0.191858   
     length 1.84767   
     axis 0 0 0   XYZ
    dof rx ry rz
    limits (-20.0 45.0)
           (-30.0 30.0)
           (-30.0 30.0)
  end
  begin
     id 15 
     name upperneck
     direction -0.0227605 0.98931 -0.14404   
     length 1.89582   
     axis 0 0 0   XYZ
    dof rx ry rz
    limits (-20.0 45.0)
           (-30.0 30.0)
           (-30.0 30.0)
  end
  begin
     id 16
     name head
     direction -0.00932985 0.997511 -0.0698904  
     length 1.90213  
     axis 0 0 0   XYZ
    dof rx ry rz
    limits (-20.0 45.0)
           (-30.0 30.0)
           (-30.0 30.0)
  end
  begin
     id 17 
     name lclavicle
     direction 0.873442 0.479511 0.0846686  
     length 3.41193  
     axis 0 0 0   XYZ
    dof ry rz
    limits (-20.0 10.0)
           (0.0 20.0)
  end
  begin
     id 18 
     name lhumerus
     direction 1 -4.4897e-011 -5.62117e-018   
     length 5.59864   
     axis 180 -30 -90   XYZ
    dof rx ry rz
    limits (-60.0 90.0)
           (-90.0 90.0)
           (-90.0 90.0)
  end
  begin
     id 19
     name lradius
     direction 1 -4.48966e-011 -6.26295e-027   
     length 3.59542   
     axis 180 -30 -90   XYZ
    dof rx
    limits (-10.0 170.0)
  end
  begin
     id 20
     name lwrist
     direction 1 -4.48947e-011 -1.74096e-026   
     length 1.79771   
     axis 1.04567e-014 90 90   XYZ
    dof ry
    limits (-180.0 0.0)
 end
  begin
     id 21 
     name lhand
     direction 1 -4.49085e-011 -3.48469e-026   
     length 0.572014   
     axis 2.22196e-014 90 90   XYZ
    dof rx rz
    limits (-90.0 90.0)
           (-45.0 45.0)
  end
  begin
     id 22 
     name lfingers
     direction 1 -4.48884e-011 -6.96135e-026   
     length 0.461173   
     axis 4.44383e-014 90 90   XYZ
    dof rx
    limits (0.0 90.0)
  end
  begin
     id 23
     name lthumb
     direction 0.707107 -6.34976e-011 0.707107   
     length 0.662154   
     axis -90 45 -5.4397e-014   XYZ
    dof rx rz
    limits (-45.0 45.0)
           (-45.0 45.0)
  end
  begin
     id 24 
     name rclavicle
     direction -0.890242 0.443271 0.104786   
     length 3.46753  
     axis 0 0 0   XYZ 
    dof ry rz
    limits (-10.0 20.0)
           (-20.0 0.0)
  end
  begin
     id 25 
     name rhumerus
     direction -1 -4.48963e-011 -5.41723e-018  
     length 5.8094   
     axis 180 30 90   XYZ
    dof rx ry rz
    limits (-90.0 60.0)
           (-90.0 90.0)
           (-90.0 90.0)
  end
  begin
     id 26 
     name rradius
     direction -1 -4.48958e-011 -6.51059e-027   
     length 3.66953   
     axis 180 30 90   XYZ
    dof rx
    limits (-10.0 170.0)
  end
  begin
     id 27 
     name rwrist
     direction -1 -4.48975e-011 -1.74124e-026   
     length 1.83476   
     axis 1.04567e-014 -90 -90   XYZ
    dof ry
    limits (-180.0 0.0)
  end
  begin
     id 28
     name rhand
     direction -1 -4.49013e-011 -3.48326e-026   
     length 0.57843   
     axis 2.22196e-014 -90 -90   XYZ
    dof rx rz
    limits (-90.0 90.0)
           (-45.0 45.0)
  end
  begin
     id 29
     name rfingers
     direction -1 -4.49023e-011 -6.9669e-026   
     length 0.466345   
     axis 4.44383e-014 -90 -90   XYZ
    dof rx
    limits (0.0 90.0)
  end
  begin
     id 30
     name rthumb
     direction -0.707107 -6.34926e-011 0.707107   
     length 0.669581   
     axis -90 -45 5.4397e-014   XYZ
    dof rx rz
    limits (-45.0 45.0)
           (-45.0 45.0)
  end
:hierarchy
  begin
    root lhipjoint rhipjoint lowerback
    lhipjoint lfemur
    lfemur ltibia
    ltibia lfoot
    lfoot ltoes
    rhipjoint rfemur
    rfemur rtibia
    rtibia rfoot
    rfoot rtoes
    lowerback upperback
    upperback thorax
    thorax lowerneck lclavicle rclavicle
    lowerneck upperneck
    upperneck head
    lclavicle lhumerus
    lhumerus lradius
    lradius lwrist
    lwrist lhand lthumb
    lhand lfingers
    rclavicle rhumerus
    rhumerus rradius
    rradius rwrist
    rwrist rhand rthumb
    rhand rfingers
  end

#!OML:ASF H:\SkateBoarding\Project 1\Capture day 1\Session 1\Skater.ASF
:FULLY-SPECIFIED
:DEGREES
1
root 21.741 19.2217 -21.5831 1.98036 63.0364 -6.87577
lowerback 9.31252 -3.57668 -5.70239
upperback -1.34973 -5.43107 -0.116387
thorax -6.12429 -2.46703 3.83197
lowerneck -16.1522 -8.18017 -4.26229
upperneck 36.0406 -12.7364 6.11967
head 16.3531 -4.8647 1.04638
rclavicle 2.32578e-014 1.11319e-014
rhumerus -53.0135 10.3578 -85.813
rradius 59.0383
rwrist 0.258482
rhand -41.6636 19.5479
rfingers 7.12502
rthumb -14.571 -9.92027
lclavicle 2.32578e-014 1.11319e-014
lhumerus -28.0497 -1.44796 79.4032
lradius 35.8369
lwrist 20.3537
lhand -24.015 15.425
lfingers 7.12502
lthumb 2.46288 45.3905
rfemur -27.674 -7.65627 25.6463
rtibia 44.1399
rfoot -33.2043 0.910155
rtoes -17.5711
lfemur -14.5005 -7.90185 -9.89493
ltibia 47.8591
lfoot -46.5442 6.80837
ltoes -11.0283
2
root 21.7617 19.2545 -21.2802 2.19796 61.451 -6.50359
lowerback 9.24824 -3.23624 -5.48351
upperback -1.26304 -4.94935 -0.199317
thorax -6.06961 -2.24311 3.5549
lowerneck -16.32 -8.0845 -4.37159
upperneck 35.8559 -12.6236 6.31557
head 16.3208 -4.81025 1.16187
rclavicle -1.1291e-013 6.36111e-015
rhumerus -52.1094 10.5841 -85.3262
rradius 57.984
rwrist 0.37765
rhand -41.694 19.069
rfingers 7.12502
rthumb -14.6003 -10.3971
lclavicle -1.1291e-013 6.36111e-015
lhumerus -29.3944 -1.83644 78.8881
lradius 37.2188
lwrist 21.8834
lhand -24.4421 15.5461
lfingers 7.12502
lthumb 2.05039 45.516
rfemur -27.0615 -7.0964 25.4332
rtibia 43.247
rfoot -32.4429 0.925946
rtoes -18.7055
lfemur -14.5971 -7.44673 -10.2171
ltibia 49.1807
lfoot -46.1504 7.39074
ltoes -11.5664
3
root 21.7831 19.2932 -20.98 2.15159 59.866 -6.30024
lowerback 9.3641 -2.87983 -5.16851
upperback -1.15846 -4.44526 -0.263339
thorax -6.10056 -2.00787 3.25253
lowerneck -16.5236 -7.97756 -4.65116
upperneck 35.714 -12.4811 6.62289
head 16.3432 -4.74709 1.35899
rclavicle -1.05753e-013 -1.43125e-014
rhumerus -51.1807 10.8014 -84.7774
rradius 56.9667
rwrist 0.538184
rhand -41.5835 18.6363
rfingers 7.12502
rthumb -14.4939 -10.8375
lclavicle -1.05753e-013 -1.43125e-014
lhumerus -30.5496 -1.46715 78.3733
lradius 38.1564
lwrist 22.445
lhand -24.374 15.173
lfingers 7.12502
lthumb 2.1162 45.1423
rfemur -26.117 -6.63805 25.2831
rtibia 41.9826
rfoot -31.6022 1.25409
rtoes -18.6777
lfemur -14.8582 -6.76474 -10.4262
ltibia 50.9367
lfoot -45.3522 6.89607
ltoes -9.47864
4
root 21.8073 19.3352 -20.6801 2.15644 58.309 -6.07707
lowerback 9.44785 -2.54163 -4.87887
upperback -1.06112 -3.96556 -0.312115
thorax -6.10961 -1.78416 2.97882
lowerneck -16.7237 -7.86568 -4.47846
upperneck 35.6001 -12.2977 6.44841
head 16.2838 -4.67363 1.2819
rclavicle -6.38099e-014 -6.36111e-015
rhumerus -50.1917 11.0591 -84.2134
rradius 55.9312
rwrist 0.676511
rhand -41.3902 18.0072
rfingers 7.12502
rthumb -14.3077 -11.4798
lclavicle -6.38099e-014 -6.36111e-015
lhumerus -31.6674 -1.44289 77.8947
lradius 39.0593
lwrist 23.309
lhand -24.5255 14.7863
lfingers 7.12502
lthumb 1.96986 44.7569
rfemur -25.1754 -5.99304 25.0601
rtibia 40.6967
rfoot -30.8712 1.5488
rtoes -19.5511
lfemur -15.1951 -6.60347 -10.6593
ltibia 52.7347
lfoot -44.3725 7.35679
ltoes -7.8258
5
root 21.8289 19.3773 -20.3845 1.99003 56.9316 -6.13554
lowerback 9.59049 -2.26278 -4.46369
upperback -1.02913 -3.55157 -0.282677
thorax -6.21286 -1.59213 2.72899
lowerneck -16.8241 -7.76816 -4.27304
upperneck 35.5652 -12.0973 6.13022
head 16.2229 -4.60874 1.14626
rclavicle -3.26007e-014 -2.46493e-014
rhumerus -49.2107 11.3144 -83.5973
rradius 54.9917
rwrist 0.801765
rhand -41.2617 17.3864
rfingers 7.12502
rthumb -14.1838 -12.1094
lclavicle -3.26007e-014 -2.46493e-014
lhumerus -32.7443 -1.41792 77.576
lradius 39.8578
lwrist 23.6613
lhand -24.6085 14.9398
lfingers 7.12502
lthumb 1.88964 44.9112
rfemur -24.1939 -5.27819 24.9233
rtibia 39.2506
rfoot -30.2233 2.53045
rtoes -18.6115
lfemur -16.0222 -6.778 -10.6598
ltibia 54.7921
lfoot -42.2884 10.0282
ltoes -9.99928
6
root 21.8499 19.4133 -20.0875 1.9159 55.4999 -6.07209
lowerback 9.73428 -1.96017 -4.10716
upperback -0.975083 -3.11323 -0.297794
thorax -6.28918 -1.38816 2.45815
lowerneck -16.962 -7.66838 -4.16058
upperneck 35.4882 -11.9262 5.98376
head 16.179 -4.54469 1.09228
rclavicle 8.22969e-014 2.94201e-014
rhumerus -48.227 11.5092 -83.0211
rradius 54.0275
rwrist 0.908273
rhand -41.1441 16.8487
rfingers 7.12502
rthumb -14.0705 -12.655
lclavicle 8.22969e-014 2.94201e-014
lhumerus -33.8527 -1.39224 77.1935
lradius 40.7399
lwrist 24.2566
lhand -24.7014 14.8689
lfingers 7.12502
lthumb 1.79991 44.841
rfemur -23.2646 -4.66029 24.7732
rtibia 37.8183
rfoot -29.4802 3.06505
rtoes -18.2111
lfemur -16.7185 -6.63348 -10.7092
ltibia 56.8289
lfoot -40.4881 11.292
ltoes -10.4178
7
root 21.8702 19.4474 -19.7913 1.85374 54.1224 -6.02874
lowerback 9.89333 -1.66848 -3.75116
upperback -0.937856 -2.68941 -0.307066
thorax -6.38514 -1.19084 2.194
lowerneck -17.0753 -7.57584 -4.01153
upperneck 35.4267 -11.765 5.79901
head 16.1319 -4.4853 1.01513
rclavicle -1.72943e-014 3.97569e-015
rhumerus -47.243 11.6686 -82.4422
rradius 53.0986
rwrist 0.978225
rhand -41.0387 16.3329
rfingers 7.12502
rthumb -13.9689 -13.1778
lclavicle -1.72943e-014 3.97569e-015
lhumerus -34.9299 -1.38588 76.8504
lradius 41.576
lwrist 24.7753
lhand -24.7772 14.8168
lfingers 7.12502
lthumb 1.7267 44.7896
rfemur -22.3887 -4.03185 24.6279
rtibia 36.4161
rfoot -28.7687 3.62097
rtoes -17.5167
lfemur -17.5184 -6.58878 -10.6962
ltibia 58.8704
lfoot -38.3033 12.527
ltoes -11.0016
8
root 21.8894 19.4782 -19.4953 1.8192 52.7925 -5.98983
lowerback 10.058 -1.38689 -3.42493
upperback -0.915115 -2.28154 -0.306626
thorax -6.49188 -1.00019 1.9567
lowerneck -17.1629 -7.49122 -3.84393
upperneck 35.3755 -11.616 5.59564
head 16.0823 -4.43141 0.925798
rclavicle 5.1684e-015 1.03368e-014
rhumerus -46.2586 11.8011 -81.8642
rradius 52.2095
rwrist 1.00998
rhand -40.9599 15.8579
rfingers 7.12502
rthumb -13.893 -13.6581
lclavicle 5.1684e-015 1.03368e-014
lhumerus -35.9831 -1.41613 76.5522
lradius 42.3885
lwrist 25.2734
lhand -24.8583 14.7933
lfingers 7.12502
lthumb 1.64838 44.7667
rfemur -21.6355 -3.39967 24.4868
rtibia 35.1703
rfoot -28.118 4.15233
rtoes -16.7309
lfemur -18.3571 -6.64916 -10.6224
ltibia 60.7733
lfoot -35.7617 13.5504
ltoes -11.876
9
root 21.9072 19.5049 -19.1997 1.82638 51.5181 -5.93759
lowerback 10.2264 -1.11905 -3.13865
upperback -0.903953 -1.89579 -0.300431
thorax -6.60591 -0.8191 1.74883
lowerneck -17.2292 -7.41387 -3.68955
upperneck 35.3294 -11.4815 5.41127
head 16.0351 -4.3829 0.84497
rclavicle -7.87187e-014 1.59028e-014
rhumerus -45.2714 11.9033 -81.2917
rradius 51.3606
rwrist 1.02432
rhand -40.9269 15.4107
rfingers 7.12502
rthumb -13.8612 -14.1074
lclavicle -7.87187e-014 1.59028e-014
lhumerus -37.0049 -1.45798 76.2969
lradius 43.174
lwrist 25.7476
lhand -24.9285 14.7795
lfingers 7.12502
lthumb 1.58058 44.7534
rfemur -21.0182 -2.79729 24.3439
rtibia 34.0913
rfoot -27.4934 4.62119
rtoes -15.9032
lfemur -19.2261 -6.81863 -10.4957
ltibia 62.5351
lfoot -32.9946 14.0968
ltoes -12.9514
10
root 21.9236 19.5272 -18.9045 1.87922 50.2908 -5.86032
lowerback 10.3971 -0.862559 -2.9065
upperback -0.899681 -1.53075 -0.289126
thorax -6.72234 -0.646485 1.57762
lowerneck -17.277 -7.34548 -3.55529
upperneck 35.285 -11.3643 5.25393
head 15.9905 -4.34081 0.77643
rclavicle -5.98342e-014 -2.38542e-015
rhumerus -44.2775 11.9743 -80.7257
rradius 50.555
rwrist 1.02817
rhand -40.9342 14.9796
rfingers 7.12502
rthumb -13.8682 -14.538
lclavicle -5.98342e-014 -2.38542e-015
lhumerus -37.9849 -1.50251 76.0815
lradius 43.9255
lwrist 26.2229
lhand -24.9837 14.7594
lfingers 7.12502
lthumb 1.52734 44.7337
rfemur -20.568 -2.22856 24.1943
rtibia 33.2479
rfoot -26.9034 4.99345
rtoes -15.1524
lfemur -20.0821 -7.101 -10.3268
ltibia 64.0896
lfoot -30.1735 13.9673
ltoes -14.0482
11
root 21.9379 19.5444 -18.6101 1.99833 49.1212 -5.75198
lowerback 10.5615 -0.623496 -2.73416
upperback -0.905096 -1.19528 -0.272525
thorax -6.84016 -0.486394 1.44808
lowerneck -17.3126 -7.28513 -3.45277
upperneck 35.2357 -11.2631 5.13506
head 15.9484 -4.30459 0.726904
rclavicle -8.74653e-015 1.59028e-014
rhumerus -43.2696 12.0065 -80.1629
rradius 49.7939
rwrist 1.0398
rhand -40.9366 14.5768
rfingers 7.12502
rthumb -13.8705 -14.9406
lclavicle -8.74653e-015 1.59028e-014
lhumerus -38.912 -1.54172 75.9084
lradius 44.6293
lwrist 26.6823
lhand -25.0317 14.7328
lfingers 7.12502
lthumb 1.48095 44.7074
rfemur -20.3372 -1.72827 24.0393
rtibia 32.6936
rfoot -26.324 5.27174
rtoes -14.6476
lfemur -20.9309 -7.50463 -10.1161
ltibia 65.3949
lfoot -27.5101 13.0556
ltoes -14.9144
12
root 21.9501 19.5569 -18.3162 2.16589 47.998 -5.62041
lowerback 10.7246 -0.398298 -2.62624
upperback -0.914641 -0.88546 -0.248724
thorax -6.95779 -0.33665 1.36466
lowerneck -17.3396 -7.23328 -3.37949
upperneck 35.1793 -11.1785 5.05252
head 15.9079 -4.27445 0.694761
rclavicle 8.05078e-015 7.95139e-016
rhumerus -42.2466 12.0031 -79.6112
rradius 49.0693
rwrist 1.08657
rhand -40.9526 14.1644
rfingers 7.12502
rthumb -13.8859 -15.352
lclavicle 8.05078e-015 7.95139e-016
lhumerus -39.7753 -1.56306 75.7686
lradius 45.2758
lwrist 27.13
lhand -25.0468 14.7137
lfingers 7.12502
lthumb 1.46634 44.6884
rfemur -20.3245 -1.28769 23.8864
rtibia 32.4535
rfoot -25.763 5.44444
rtoes -14.4252
lfemur -21.7464 -8.00341 -9.86605
ltibia 66.4201
lfoot -25.1146 11.5393
ltoes -15.7729
13
root 21.9609 19.5647 -18.0245 2.3933 46.9265 -5.4554
lowerback 10.8872 -0.19047 -2.56193
upperback -0.92763 -0.604276 -0.227569
thorax -7.07641 -0.199543 1.30607
lowerneck -17.3648 -7.18932 -3.33619
upperneck 35.1107 -11.1097 5.00887
head 15.868 -4.24989 0.680993
rclavicle 5.51627e-014 3.18055e-015
rhumerus -41.2063 11.9485 -79.0704
rradius 48.3826
rwrist 1.17911
rhand -40.9624 13.7357
rfingers 7.12502
rthumb -13.8954 -15.7801
lclavicle 5.51627e-014 3.18055e-015
lhumerus -40.5588 -1.56568 75.6552
lradius 45.8516
lwrist 27.5573
lhand -25.0285 14.7153
lfingers 7.12502
lthumb 1.48401 44.6899
rfemur -20.5396 -0.919574 23.7222
rtibia 32.5277
rfoot -25.2199 5.5101
rtoes -14.4831
lfemur -22.5404 -8.59932 -9.5986
ltibia 67.1577
lfoot -23.0891 9.60488
ltoes -16.3473
14
root 21.9698 19.5685 -17.734 2.64913 45.891 -5.28796
lowerback 11.0584 0.0094952 -2.5325
upperback -0.942224 -0.33819 -0.206077
thorax -7.20041 -0.0686081 1.26857
lowerneck -17.3914 -7.15516 -3.30821
upperneck 35.0268 -11.0607 4.99418
head 15.8261 -4.232 0.678063
rclavicle -8.39865e-014 -7.95139e-015
rhumerus -40.1581 11.8303 -78.5473
rradius 47.7337
rwrist 1.3073
rhand -40.9365 13.3072
rfingers 7.12502
rthumb -13.8705 -16.2102
lclavicle -8.39865e-014 -7.95139e-015
lhumerus -41.2534 -1.56282 75.5604
lradius 46.3457
lwrist 27.9505
lhand -24.9644 14.7397
lfingers 7.12502
lthumb 1.54599 44.7138
rfemur -20.9569 -0.575682 23.5703
rtibia 32.8825
rfoot -24.729 5.4514
rtoes -14.8012
lfemur -23.3017 -9.25784 -9.2885
ltibia 67.6043
lfoot -21.4511 7.4777
ltoes -16.593
